# xmcd
# 
# Track frame offsets:
#     150
#     19432
#     37869
# 
# Disc length: 788
# 
# Revision: 2
# Processed by: cddbd v1.5.2PL0 Copyright (c) Steve Scherf et al.
# Submitted via: fre:ac v1.0.17
# 
DISCID=1b031203
DTITLE=Virgil - Last Promise
DYEAR=2011
DGENRE=
TTITLE0=Last Promise
TTITLE1=Rewind
TTITLE2=Little story
EXTD=
EXTT0=
EXTT1=
EXTT2=
PLAYORDER=
